<?xml version="1.0" encoding="utf-8"?>
<!-- Generator: Adobe Illustrator 16.0.0, SVG Export Plug-In . SVG Version: 6.00 Build 0)  -->
<!DOCTYPE svg PUBLIC "-//W3C//DTD SVG 1.1//EN" "http://www.w3.org/Graphics/SVG/1.1/DTD/svg11.dtd">
<svg version="1.1" id="Layer_1" xmlns="http://www.w3.org/2000/svg" xmlns:xlink="http://www.w3.org/1999/xlink" x="0px" y="0px"
	 width="175px" height="35px" viewBox="0 0 175 35" enable-background="new 0 0 175 35" xml:space="preserve">
<a xlink:href="http://antistatique.net" >
	<g>
		<path fill="#FFFFFF" d="M82.061,21.317c-0.571,0-1.114-0.303-1.114-0.959v-8.582h2.76V8.314h-2.76V2.82L76.93,4.98v3.334H74.5
			v3.462h2.431v9.412c0,1.832,1.146,3.787,4.366,3.787c1.515,0,2.511-0.4,2.511-0.4v-3.592
			C83.807,20.985,82.692,21.317,82.061,21.317z"/>
		<path fill="#FFFFFF" d="M47.392,21.317c-0.571,0-1.114-0.303-1.114-0.959v-8.582h2.759V8.314h-2.759V2.82L42.26,4.98v3.334h-2.429
			v3.462h2.429v9.412c0,1.832,1.146,3.787,4.366,3.787c1.515,0,2.511-0.4,2.511-0.4v-3.592
			C49.138,20.985,48.022,21.317,47.392,21.317z"/>
		<path fill="#FFFFFF" d="M31.455,7.907c-1.545,0-3.462,0.986-4.314,2.404l-0.282-2.021h-3.58v16.703h4.008v-9.666
			c0-2.278,1.877-3.688,3.618-3.688c2.282,0,3.096,1.952,3.096,3.779v9.574h4.006v-9.766C38.003,10.508,35.677,7.907,31.455,7.907z"
			/>
		<path fill="#FFFFFF" d="M152.732,17.39c0,2.279-1.926,3.689-3.707,3.689c-1.906,0-2.551-0.953-2.551-3.781V8.315h-4.006v9.359
			c0,4.927,1.994,7.321,6.096,7.321c1.674,0,3.422-0.755,4.406-2.233l0.189,1.849h3.582V8.314h-4.01V17.39L152.732,17.39z"/>
		<path fill="#FFFFFF" d="M111.799,21.317c-0.572,0-1.115-0.303-1.115-0.959v-8.582h2.76V8.314h-2.76V2.82l-4.018,2.16v3.334h-2.432
			v3.462h2.432v9.412c0,1.832,1.146,3.787,4.367,3.787c1.514,0,2.51-0.4,2.51-0.4v-3.592
			C113.545,20.985,112.43,21.317,111.799,21.317z"/>
		<rect x="52.203" y="8.293" fill="#FFFFFF" width="4.008" height="16.703"/>
		<path fill="#FFFFFF" d="M54.207,1c-1.34,0-2.43,1.09-2.43,2.43c0,1.339,1.09,2.428,2.43,2.428s2.43-1.09,2.43-2.428
			C56.635,2.091,55.544,1,54.207,1z"/>
		<rect x="116.719" y="8.293" fill="#FFFFFF" width="4.008" height="16.703"/>
		<path fill="#FFFFFF" d="M118.723,1c-1.34,0-2.43,1.09-2.43,2.43c0,1.339,1.09,2.428,2.43,2.428c1.338,0,2.43-1.09,2.43-2.428
			C121.152,2.091,120.061,1,118.723,1z"/>
		<path fill="#FFFFFF" d="M175,17.187c0-2.785-0.66-5.078-1.973-6.721c-1.254-1.571-3.1-2.551-5.561-2.551
			c-2.246,0-4.293,0.889-5.764,2.532c-1.457,1.62-2.258,3.86-2.258,6.303c0,5.5,4.105,8.615,7.932,8.615
			c3.824,0,6.262-1.702,7.164-4.19l-3.773-1.095c-0.645,0.996-1.564,1.587-3.391,1.587c-2.244,0-3.604-1.861-3.697-3.623h11.273
			C174.955,18.044,175,17.521,175,17.187z M163.758,14.875c0.27-1.551,1.229-3.324,3.605-3.324c2.383,0,3.279,1.601,3.4,3.324
			H163.758z"/>
		<path fill="#FFFFFF" d="M8.396,1.808L0,24.963h4.394l1.611-4.657h8.841l1.653,4.657h4.687L12.773,1.808H8.396z M7.333,16.408
			l3.09-8.918l3.039,8.918H7.333L7.333,16.408z"/>
		<path fill="#FFFFFF" d="M58.535,20.239c0.482,3.16,3.256,5.125,7.18,5.125c4.771,0,7.068-2.157,7.068-5.062
			c0-3.052-2.123-4.505-5.478-5.41c-3.604-0.973-4.128-1.291-4.128-2.115c0-0.558,0.57-1.42,2.271-1.42
			c1.842,0,2.807,0.852,3.117,1.899l3.918-0.675c-0.775-2.838-3.209-4.658-7.035-4.658c-3.566,0-6.25,2.296-6.25,4.997
			c0,2.822,1.793,4.047,5.229,4.899c3.549,0.881,4.406,1.543,4.406,2.34c0,0.923-0.929,1.593-2.994,1.593
			c-1.709,0-2.996-0.849-3.235-2.235L58.535,20.239z"/>
		<path fill="#FFFFFF" d="M135.418,10.256c-0.67-1.274-2.248-2.342-4.191-2.342c-4.406,0-7.729,3.792-7.729,8.821
			c0,5.002,3.174,8.631,7.549,8.631c1.746,0,3.545-1.068,4.215-2.622v8.801h4.008V8.315h-3.578L135.418,10.256z M131.471,21.631
			c-2.209,0-4.002-2.241-4.002-5.009c0-2.766,1.793-5.008,4.002-5.008c2.211,0,4.004,2.242,4.004,5.008
			C135.475,19.39,133.682,21.631,131.471,21.631z"/>
		<path fill="#FFFFFF" d="M102.312,21.317c-0.449,0-0.822-0.266-0.822-0.752V8.315h-3.578l-0.252,1.947
			c-0.818-1.52-2.502-2.347-4.209-2.347c-4.408,0-7.731,3.792-7.731,8.822c0,5,3.176,8.63,7.547,8.63
			c1.949,0,3.977-1.329,4.539-2.685c0.021,1.155,1.068,2.284,3.094,2.284c1.457,0,2.73-0.393,2.73-0.393v-3.591
			C103.629,20.985,102.812,21.317,102.312,21.317z M93.693,21.631c-2.211,0-4.004-2.241-4.004-5.009
			c0-2.766,1.793-5.008,4.004-5.008s4.002,2.242,4.002,5.008C97.695,19.39,95.904,21.631,93.693,21.631z"/>
	</g>
</a>
</svg>
