<?xml version="1.0" encoding="utf-8"?>
<!-- Generator: Adobe Illustrator 16.0.0, SVG Export Plug-In . SVG Version: 6.00 Build 0)  -->
<!DOCTYPE svg PUBLIC "-//W3C//DTD SVG 1.1//EN" "http://www.w3.org/Graphics/SVG/1.1/DTD/svg11.dtd">
<svg version="1.1" id="Layer_1" xmlns="http://www.w3.org/2000/svg" xmlns:xlink="http://www.w3.org/1999/xlink" x="0px" y="0px"
	 width="180px" height="35px" viewBox="-2.5 0 180 35" enable-background="new -2.5 0 180 35" xml:space="preserve">
<a xlink:href="http://antistatique.net" >
	<rect fill="none" width="175" height="35"/>
	<g>
		<path fill="#FFFFFF" d="M82.062,22.545c-0.571,0-1.114-0.303-1.114-0.959v-8.583h2.76V9.541h-2.76V4.047l-4.017,2.16v3.334H74.5
			v3.462h2.431v9.413c0,1.832,1.146,3.787,4.366,3.787c1.515,0,2.511-0.4,2.511-0.4v-3.592
			C83.808,22.213,82.693,22.545,82.062,22.545z"/>
		<path fill="#FFFFFF" d="M47.393,22.545c-0.571,0-1.114-0.303-1.114-0.959v-8.583h2.759V9.541h-2.759V4.047l-4.018,2.16v3.334
			h-2.429v3.462h2.429v9.413c0,1.832,1.146,3.787,4.366,3.787c1.515,0,2.511-0.4,2.511-0.4v-3.592
			C49.139,22.213,48.023,22.545,47.393,22.545z"/>
		<path fill="#FFFFFF" d="M31.456,9.134c-1.546,0-3.463,0.986-4.315,2.404l-0.282-2.02h-3.58v16.704h4.008v-9.667
			c0-2.278,1.877-3.689,3.618-3.689c2.282,0,3.095,1.953,3.095,3.78v9.574h4.006v-9.764C38.004,11.735,35.678,9.134,31.456,9.134z"
			/>
		<path fill="#FFFFFF" d="M152.734,18.617c0,2.279-1.926,3.689-3.709,3.689c-1.906,0-2.549-0.953-2.549-3.781V9.542h-4.006V18.9
			c0,4.928,1.992,7.322,6.096,7.322c1.674,0,3.42-0.756,4.406-2.232l0.188,1.848h3.582V9.541h-4.008V18.617L152.734,18.617z"/>
		<path fill="#FFFFFF" d="M111.799,22.545c-0.57,0-1.113-0.303-1.113-0.959v-8.583h2.758V9.541h-2.758V4.047l-4.02,2.16v3.334h-2.43
			v3.462h2.43v9.413c0,1.832,1.148,3.787,4.367,3.787c1.514,0,2.51-0.4,2.51-0.4v-3.592
			C113.545,22.213,112.43,22.545,111.799,22.545z"/>
		<rect x="52.204" y="9.52" fill="#FFFFFF" width="4.008" height="16.703"/>
		<path fill="#FFFFFF" d="M54.208,2.227c-1.34,0-2.43,1.09-2.43,2.43c0,1.339,1.09,2.428,2.43,2.428s2.429-1.09,2.429-2.428
			C56.636,3.318,55.545,2.227,54.208,2.227z"/>
		<rect x="116.721" y="9.52" fill="#FFFFFF" width="4.008" height="16.703"/>
		<path fill="#FFFFFF" d="M118.723,2.227c-1.34,0-2.43,1.09-2.43,2.43c0,1.339,1.09,2.428,2.43,2.428c1.338,0,2.43-1.09,2.43-2.428
			C121.152,3.318,120.062,2.227,118.723,2.227z"/>
		<path fill="#FFFFFF" d="M175,18.414c0-2.786-0.66-5.079-1.971-6.721c-1.254-1.571-3.1-2.551-5.562-2.551
			c-2.244,0-4.291,0.889-5.762,2.531c-1.457,1.621-2.258,3.861-2.258,6.304c0,5.5,4.107,8.615,7.932,8.615s6.262-1.701,7.164-4.189
			l-3.773-1.096c-0.645,0.996-1.566,1.588-3.391,1.588c-2.244,0-3.604-1.861-3.697-3.623h11.273
			C174.955,19.271,175,18.748,175,18.414z M163.758,16.102c0.27-1.551,1.23-3.324,3.607-3.324c2.381,0,3.279,1.601,3.4,3.324
			H163.758z"/>
		<path fill="#FFFFFF" d="M8.397,3.035L0.001,26.189h4.394l1.611-4.656h8.841l1.653,4.656h4.687L12.774,3.035H8.397z M7.334,17.635
			l3.09-8.918l3.039,8.918H7.334z"/>
		<path fill="#FFFFFF" d="M58.536,21.467c0.482,3.16,3.256,5.125,7.18,5.125c4.771,0,7.068-2.158,7.068-5.062
			c0-3.053-2.123-4.505-5.478-5.411c-3.604-0.973-4.128-1.291-4.128-2.115c0-0.558,0.57-1.42,2.271-1.42
			c1.842,0,2.807,0.851,3.118,1.899l3.918-0.675C71.709,10.97,69.277,9.15,65.45,9.15c-3.566,0-6.25,2.296-6.25,4.997
			c0,2.822,1.793,4.046,5.229,4.9c3.549,0.881,4.406,1.543,4.406,2.34c0,0.922-0.928,1.592-2.994,1.592
			c-1.709,0-2.996-0.848-3.235-2.234L58.536,21.467z"/>
		<path fill="#FFFFFF" d="M135.418,11.483c-0.67-1.274-2.248-2.342-4.189-2.342c-4.406,0-7.73,3.792-7.73,8.821
			c0,5.002,3.174,8.631,7.549,8.631c1.746,0,3.545-1.068,4.215-2.623v8.801h4.008V9.542h-3.578L135.418,11.483z M131.471,22.857
			c-2.207,0-4.002-2.24-4.002-5.008c0-2.766,1.793-5.008,4.002-5.008c2.213,0,4.004,2.242,4.004,5.008
			C135.475,20.617,133.684,22.857,131.471,22.857z"/>
		<path fill="#FFFFFF" d="M102.312,22.545c-0.447,0-0.822-0.266-0.822-0.752V9.542h-3.578L97.66,11.49
			c-0.818-1.521-2.502-2.348-4.209-2.348c-4.408,0-7.731,3.792-7.731,8.822c0,5,3.176,8.629,7.547,8.629
			c1.949,0,3.975-1.328,4.539-2.684c0.02,1.156,1.068,2.285,3.094,2.285c1.457,0,2.729-0.393,2.729-0.393v-3.59
			C103.629,22.213,102.814,22.545,102.312,22.545z M93.693,22.857c-2.209,0-4.002-2.24-4.002-5.008c0-2.766,1.791-5.008,4.002-5.008
			s4.004,2.242,4.004,5.008C97.697,20.617,95.904,22.857,93.693,22.857z"/>
	</g>
</a>
</svg>
